# xmcd
#
# Track frame offsets: 
#        150
#        21141
#        38151
#        56595
#        78820
#        95247
#        113232
#        134810
#        152396
#        177922
#        199604
#
# Disc length: 2951 seconds
#
# Revision: 7
# Processed by: cddbd v1.5.2PL0 Copyright (c) Steve Scherf et al.
# Submitted via: ExactAudioCopy v0.95a5
#
DISCID=8c0b850b
DTITLE=Mortal - Nu-En-Jin
DYEAR=2002
DGENRE=Industrial
TTITLE0=tenn0
TTITLE1=Mr Ar0chet
TTITLE2=Dymenshan [Kr-Krik-P0p!]
TTITLE3=muj0 [Uncertainty mx]
TTITLE4=Vilan C0rp [Spy mx]
TTITLE5=FMZ4
TTITLE6=fl0ranclaude
TTITLE7=Teraferma
TTITLE8=cl0udburst
TTITLE9=myth0 ex [Green Edit]
TTITLE10=the W0rd is alive [Jer0mix]
EXTD=This CD rocks! YEAR: 2002 ID3G: 19
EXTT0=
EXTT1=
EXTT2=
EXTT3=
EXTT4=
EXTT5=
EXTT6=
EXTT7=
EXTT8=
EXTT9=
EXTT10=
PLAYORDER=
